
<svg width="16" height="16" viewBox="0 0 16 16" fill="none" xmlns="http://www.w3.org/2000/svg">
<path d="M5.48397 6.99951C5.41603 6.86548 5.4372 6.70354 5.53843 6.59248L6.52143 5.35298C6.9589 4.87298 7.02947 4.16274 6.69507 3.60604L5.01497 1.04641C4.63877 0.420143 3.85967 0.165243 3.18603 0.44801L1.2477 1.26171C0.744935 1.47278 0.398301 1.94448 0.352401 2.48778C0.245535 3.75254 0.516168 6.28711 3.1611 9.98244C3.94993 11.0845 4.91553 12.0501 6.01763 12.8389C9.71297 15.4839 12.2475 15.7545 13.5123 15.6477C14.0556 15.6017 14.5273 15.2551 14.7383 14.7524L15.552 12.8141C15.8348 12.1404 15.5799 11.3613 14.9536 10.9851L12.394 9.30501C11.8373 8.97061 11.1271 9.04118 10.6471 9.47864L9.40757 10.4616C9.2965 10.5628 9.1346 10.584 9.00057 10.5161C7.38763 9.67058 6.37077 8.72104 5.48397 6.99951Z" fill="#637381"/>
</svg>
