<svg width="12" height="12" viewBox="0 0 12 12" fill="none" xmlns="http://www.w3.org/2000/svg">
<g id="&#240;&#159;&#154;&#128; Info">
<path id="icon" fill-rule="evenodd" clip-rule="evenodd" d="M0 6C0 2.68629 2.6863 0 6 0C9.31372 0 12 2.68628 12 6C12 9.31372 9.31372 12 6 12C2.6863 12 0 9.31371 0 6ZM11 6C11 3.23857 8.76143 1 6 1C3.23858 1 1 3.23858 1 6C1 8.76142 3.23858 11 6 11C8.76143 11 11 8.76143 11 6ZM5.125 3.125C5.125 2.64175 5.51675 2.25 6 2.25C6.48325 2.25 6.875 2.64175 6.875 3.125C6.875 3.60825 6.48325 4 6 4C5.51675 4 5.125 3.60825 5.125 3.125ZM6.75907 5.67777C6.72272 5.29744 6.40235 5 6.0125 5C5.59829 5 5.2625 5.33579 5.2625 5.75V9L5.26593 9.07223C5.30228 9.45256 5.62265 9.75 6.0125 9.75C6.42671 9.75 6.7625 9.41421 6.7625 9V5.75L6.75907 5.67777Z" fill="#768695"/>
</g>
</svg>
