<svg width="13" height="13" viewBox="0 0 13 13" fill="none" xmlns="http://www.w3.org/2000/svg">
<path fill-rule="evenodd" clip-rule="evenodd" d="M3.5 0.5H9.5C11.1569 0.5 12.5 1.84315 12.5 3.5V9.5C12.5 11.1569 11.1569 12.5 9.5 12.5H3.5C1.84315 12.5 0.5 11.1569 0.5 9.5V3.5C0.5 1.84315 1.84315 0.5 3.5 0.5Z" fill="#FF3710"/>
<path d="M8.5 3.5C8.88985 3.5 9.21022 3.79744 9.24657 4.17777L9.25 4.25V8.6473C9.25 9.30527 8.47094 9.63435 7.99942 9.20614L7.95179 9.15912L5.25 6.2655V8.75C5.25 9.13985 4.95256 9.46022 4.57223 9.49657L4.5 9.5C4.11015 9.5 3.78978 9.20256 3.75343 8.82223L3.75 8.75V4.36288C3.75 3.70491 4.52906 3.37584 5.00058 3.80405L5.04821 3.85106L7.75 6.745V4.25C7.75 3.86015 8.04744 3.53978 8.42777 3.50343L8.5 3.5Z" fill="white"/>
</svg>